<?xml version="1.0" standalone="no"?>
<svg version="1.1" xmlns="http://www.w3.org/2000/svg" width="64" height="64">
  <path d="M928 0h-832c-52.8 0-96 43.2-96 96v832c0 52.8 43.2 96 96 96h832c52.8 0 96-43.2 96-96v-832c0-52.8-43.2-96-96-96zM822.4 768.8l-348.4 114c-79.6 26-87.6 21.8-123.6-89.6l-88-272.6c-21-64.6-85-238.6-95.8-272-20-62-20-65.4 97-103.4 91.6-30 95.4-29 128.6 74.4 26.8 83.2 44 150.4 71.6 235.4l75 232 239.6-78.4c47.2-15.6 63-14.8 76.4 43.4l9.6 44c11.2 51-14.6 64-42 72.8z" transform=""/>
</svg>